REM DIRINDEX 1\2,1\3,1\4
REM DIRNAME cjc105,folder01,folder02,folder03
TITLE ""
FILE "DISC2Track14.mp3" MP3
  TRACK 01 AUDIO
    TITLE "0:"
    INDEX 01 00:00:00
  TRACK 02 AUDIO
    TITLE "4:cjc105_2508"
    INDEX 01 00:00:17
  TRACK 03 AUDIO
    TITLE "0:"
    INDEX 01 00:03:57
  TRACK 04 AUDIO
    TITLE "2:cjc105_2509"
    INDEX 01 00:04:27
  TRACK 05 AUDIO
    TITLE "3:cjc105_2510"
    INDEX 01 00:06:30
  TRACK 06 AUDIO
    TITLE "0:"
    INDEX 01 00:08:09
  TRACK 07 AUDIO
    TITLE "2:cjc105_2511"
    INDEX 01 00:08:19
  TRACK 08 AUDIO
    TITLE "3:cjc105_2512"
    INDEX 01 00:10:00
  TRACK 09 AUDIO
    TITLE "0:"
    INDEX 01 00:11:37
  TRACK 10 AUDIO
    TITLE "2:cjc105_2513"
    INDEX 01 00:11:46
  TRACK 11 AUDIO
    TITLE "3:cjc105_2514"
    INDEX 01 00:13:53
  TRACK 12 AUDIO
    TITLE "0:"
    INDEX 01 00:15:13
  TRACK 13 AUDIO
    TITLE "2:cjc105_2515"
    INDEX 01 00:15:25
  TRACK 14 AUDIO
    TITLE "3:cjc105_2516"
    INDEX 01 00:16:67
  TRACK 15 AUDIO
    TITLE "0:"
    INDEX 01 00:18:35
  TRACK 16 AUDIO
    TITLE "2:cjc105_2517"
    INDEX 01 00:18:48
  TRACK 17 AUDIO
    TITLE "3:cjc105_2518"
    INDEX 01 00:19:62
  TRACK 18 AUDIO
    TITLE "0:"
    INDEX 01 00:21:25
  TRACK 19 AUDIO
    TITLE "2:cjc105_2519"
    INDEX 01 00:21:37
  TRACK 20 AUDIO
    TITLE "3:cjc105_2520"
    INDEX 01 00:22:68
  TRACK 21 AUDIO
    TITLE "0:"
    INDEX 01 00:24:43
  TRACK 22 AUDIO
    TITLE "2:cjc105_2521"
    INDEX 01 00:24:53
  TRACK 23 AUDIO
    TITLE "3:cjc105_2522"
    INDEX 01 00:26:09
  TRACK 24 AUDIO
    TITLE "0:"
    INDEX 01 00:27:69
  TRACK 25 AUDIO
    TITLE "2:cjc105_2523"
    INDEX 01 00:28:06
  TRACK 26 AUDIO
    TITLE "3:cjc105_2524"
    INDEX 01 00:29:17
  TRACK 27 AUDIO
    TITLE "0:"
    INDEX 01 00:30:46
  TRACK 28 AUDIO
    TITLE "2:cjc105_2525"
    INDEX 01 00:30:59
  TRACK 29 AUDIO
    TITLE "3:cjc105_2526"
    INDEX 01 00:32:00
  TRACK 30 AUDIO
    TITLE "0:"
    INDEX 01 00:33:28
  TRACK 31 AUDIO
    TITLE "2:cjc105_2527"
    INDEX 01 00:33:44
  TRACK 32 AUDIO
    TITLE "3:cjc105_2528"
    INDEX 01 00:35:17
  TRACK 33 AUDIO
    TITLE "0:"
    INDEX 01 00:38:20
  TRACK 34 AUDIO
    TITLE "2:cjc105_2529"
    INDEX 01 00:38:31
  TRACK 35 AUDIO
    TITLE "3:cjc105_2530"
    INDEX 01 00:39:60
  TRACK 36 AUDIO
    TITLE "0:"
    INDEX 01 00:41:24
  TRACK 37 AUDIO
    TITLE "2:cjc105_2531"
    INDEX 01 00:41:40
  TRACK 38 AUDIO
    TITLE "3:cjc105_2532"
    INDEX 01 00:42:70
  TRACK 39 AUDIO
    TITLE "0:"
    INDEX 01 00:44:60
  TRACK 40 AUDIO
    TITLE "2:cjc105_2533"
    INDEX 01 00:44:71
  TRACK 41 AUDIO
    TITLE "3:cjc105_2534"
    INDEX 01 00:46:51
  TRACK 42 AUDIO
    TITLE "0:"
    INDEX 01 00:47:70
  TRACK 43 AUDIO
    TITLE "2:cjc105_2535"
    INDEX 01 00:48:10
  TRACK 44 AUDIO
    TITLE "3:cjc105_2536"
    INDEX 01 00:49:72
  TRACK 45 AUDIO
    TITLE "0:"
    INDEX 01 00:52:67
  TRACK 46 AUDIO
    TITLE "2:cjc105_2537"
    INDEX 01 00:53:04
  TRACK 47 AUDIO
    TITLE "3:cjc105_2538"
    INDEX 01 00:54:17
  TRACK 48 AUDIO
    TITLE "0:"
    INDEX 01 00:55:65
  TRACK 49 AUDIO
    TITLE "2:cjc105_2539"
    INDEX 01 00:56:00
  TRACK 50 AUDIO
    TITLE "3:cjc105_2540"
    INDEX 01 00:57:46
  TRACK 51 AUDIO
    TITLE "0:"
    INDEX 01 00:59:32
  TRACK 52 AUDIO
    TITLE "2:cjc105_2541"
    INDEX 01 00:59:47
  TRACK 53 AUDIO
    TITLE "3:cjc105_2542"
    INDEX 01 01:01:01
  TRACK 54 AUDIO
    TITLE "0:"
    INDEX 01 01:02:46
  TRACK 55 AUDIO
    TITLE "2:cjc105_2543"
    INDEX 01 01:02:63
  TRACK 56 AUDIO
    TITLE "3:cjc105_2544"
    INDEX 01 01:04:37
  TRACK 57 AUDIO
    TITLE "0:"
    INDEX 01 01:05:42
  TRACK 58 AUDIO
    TITLE "2:cjc105_2545"
    INDEX 01 01:05:54
  TRACK 59 AUDIO
    TITLE "3:cjc105_2546"
    INDEX 01 01:06:59
  TRACK 60 AUDIO
    TITLE "0:"
    INDEX 01 01:08:19
  TRACK 61 AUDIO
    TITLE "2:cjc105_2547"
    INDEX 01 01:08:35
  TRACK 62 AUDIO
    TITLE "3:cjc105_2548"
    INDEX 01 01:10:08
  TRACK 63 AUDIO
    TITLE "0:"
    INDEX 01 01:11:62
  TRACK 64 AUDIO
    TITLE "2:cjc105_2549"
    INDEX 01 01:11:74
  TRACK 65 AUDIO
    TITLE "3:cjc105_2550"
    INDEX 01 01:13:36
  TRACK 66 AUDIO
    TITLE "0:"
    INDEX 01 01:14:72
  TRACK 67 AUDIO
    TITLE "2:cjc105_2551"
    INDEX 01 01:15:15
  TRACK 68 AUDIO
    TITLE "3:cjc105_2552"
    INDEX 01 01:16:69
  TRACK 69 AUDIO
    TITLE "0:"
    INDEX 01 01:18:54
  TRACK 70 AUDIO
    TITLE "2:cjc105_2553"
    INDEX 01 01:18:66
  TRACK 71 AUDIO
    TITLE "3:cjc105_2554"
    INDEX 01 01:19:50
  TRACK 72 AUDIO
    TITLE "0:"
    INDEX 01 01:20:57
  TRACK 73 AUDIO
    TITLE "2:cjc105_2555"
    INDEX 01 01:20:69
  TRACK 74 AUDIO
    TITLE "3:cjc105_2556"
    INDEX 01 01:22:25
  TRACK 75 AUDIO
    TITLE "0:"
    INDEX 01 01:23:48
  TRACK 76 AUDIO
    TITLE "2:cjc105_2557"
    INDEX 01 01:23:62
  TRACK 77 AUDIO
    TITLE "3:cjc105_2558"
    INDEX 01 01:25:29
  TRACK 78 AUDIO
    TITLE "0:"
    INDEX 01 01:26:66
  TRACK 79 AUDIO
    TITLE "2:cjc105_2559"
    INDEX 01 01:27:03
  TRACK 80 AUDIO
    TITLE "3:cjc105_2560"
    INDEX 01 01:28:57
  TRACK 81 AUDIO
    TITLE "0:"
    INDEX 01 01:29:72
  TRACK 82 AUDIO
    TITLE "2:cjc105_2561"
    INDEX 01 01:30:09
  TRACK 83 AUDIO
    TITLE "3:cjc105_2562"
    INDEX 01 01:31:06
  TRACK 84 AUDIO
    TITLE "0:"
    INDEX 01 01:32:23
  TRACK 85 AUDIO
    TITLE "2:cjc105_2563"
    INDEX 01 01:32:35
  TRACK 86 AUDIO
    TITLE "3:cjc105_2564"
    INDEX 01 01:33:48
  TRACK 87 AUDIO
    TITLE "0:"
    INDEX 01 01:34:73
  TRACK 88 AUDIO
    TITLE "2:cjc105_2565"
    INDEX 01 01:35:12
  TRACK 89 AUDIO
    TITLE "3:cjc105_2566"
    INDEX 01 01:36:25
  TRACK 90 AUDIO
    TITLE "0:"
    INDEX 01 01:37:73
  TRACK 91 AUDIO
    TITLE "2:cjc105_2567"
    INDEX 01 01:38:10
  TRACK 92 AUDIO
    TITLE "3:cjc105_2568"
    INDEX 01 01:38:71
  TRACK 93 AUDIO
    TITLE "0:"
    INDEX 01 01:40:25
  TRACK 94 AUDIO
    TITLE "2:cjc105_2569"
    INDEX 01 01:40:36
  TRACK 95 AUDIO
    TITLE "3:cjc105_2570"
    INDEX 01 01:41:54
  TRACK 96 AUDIO
    TITLE "0:"
    INDEX 01 01:46:04
  TRACK 97 AUDIO
    TITLE "2:cjc105_2571"
    INDEX 01 01:46:16
  TRACK 98 AUDIO
    TITLE "3:cjc105_2572"
    INDEX 01 01:49:06
  TRACK 99 AUDIO
    TITLE "0:"
    INDEX 01 01:50:29
